<svg xmlns="http://www.w3.org/2000/svg" viewBox="-55 -36 2095 283" role="img" aria-label="The best is yet to come, in Gramps&apos; handwriting"><path d="M1178,137 L1169,140 L1160,146 L1153,147 L1138,154 L1129,155 L1127,153 L1123,157 L1123,159 L1132,161 L1137,158 L1141,158 Z M677,123 L647,137 L637,136 L635,141 L636,143 L641,144 Z M1647,117 L1640,122 L1638,130 L1632,136 L1624,138 L1615,146 L1612,155 L1616,161 L1625,163 L1637,160 L1652,149 L1650,137 L1644,132 L1643,129 Z M1649,142 L1648,145 L1643,145 L1639,150 L1630,154 L1623,153 L1623,150 L1632,143 L1635,136 L1639,136 Z M1459,120 L1454,117 L1437,117 L1438,124 L1443,124 L1459,129 L1460,133 L1456,136 L1454,143 L1447,151 L1433,158 L1429,158 L1425,155 L1426,140 L1430,138 L1430,136 L1424,137 L1416,151 L1416,157 L1421,163 L1427,165 L1438,164 L1450,158 L1457,151 L1466,137 L1466,130 Z M1748,118 L1745,116 L1740,117 L1737,124 L1728,132 L1720,134 L1716,132 L1718,117 L1714,115 L1711,116 L1706,126 L1686,145 L1686,151 L1671,155 L1667,158 L1666,163 L1671,162 L1672,158 L1674,158 L1675,160 L1681,159 L1706,135 L1708,135 L1710,139 L1715,142 L1724,142 L1736,136 L1737,141 L1735,146 L1735,156 L1731,172 L1734,176 L1739,175 L1744,169 L1744,165 L1742,164 L1742,155 L1744,151 L1744,139 L1748,124 Z M418,114 L388,125 L385,125 L382,121 L377,122 L375,125 L375,130 L388,131 Z M1234,102 L1223,108 L1212,117 L1224,110 L1227,111 L1224,119 L1220,123 L1216,131 L1211,151 L1206,161 L1206,164 L1208,166 L1214,166 L1225,132 L1236,113 L1237,105 Z M678,101 L663,104 L660,106 L654,106 L646,113 L644,113 L646,116 L653,116 L672,107 Z M767,98 L764,98 L755,108 L758,109 L759,112 L754,122 L748,146 L750,149 L754,148 L760,130 L766,118 L768,103 Z M1848,89 L1832,95 L1818,103 L1802,120 L1802,129 L1796,130 L1795,125 L1798,122 L1797,121 L1793,123 L1791,127 L1788,148 L1781,162 L1784,167 L1785,173 L1792,174 L1812,165 L1822,157 L1798,168 L1793,168 L1791,166 L1792,156 L1797,149 L1811,149 L1815,147 L1822,147 L1829,143 L1829,140 L1823,142 L1803,142 L1800,140 L1800,137 L1804,129 L1814,117 L1822,110 L1841,98 Z M1609,86 L1594,92 L1588,99 L1588,101 L1575,111 L1562,132 L1559,144 L1559,156 L1564,166 L1569,170 L1578,172 L1585,171 L1597,165 L1588,168 L1575,167 L1567,158 L1567,142 L1569,134 L1579,118 L1590,107 L1592,102 L1597,97 L1611,90 Z M1176,75 L1167,74 L1155,80 L1149,85 L1144,94 L1138,100 L1135,108 L1115,141 L1114,148 L1117,152 L1122,150 L1129,134 L1132,131 L1139,131 L1150,125 L1174,120 L1176,118 L1177,114 L1169,114 L1157,116 L1145,120 L1141,123 L1138,122 L1149,101 L1172,78 L1177,77 Z M876,69 L873,69 L873,82 L870,97 L864,113 L863,124 L859,135 L859,142 L861,144 L867,143 L876,101 L881,89 L881,74 Z M682,69 L674,70 L660,77 L650,85 L645,92 L642,101 L634,108 L630,123 L627,122 L628,109 L618,117 L615,128 L620,138 L626,138 L639,120 L640,113 L642,112 L644,106 L651,100 L657,90 L668,79 Z M1270,68 L1250,76 L1248,80 L1238,80 L1207,95 L1201,101 L1185,111 L1185,115 L1188,118 L1191,118 L1191,114 L1195,110 L1203,109 L1223,94 L1248,82 L1251,77 L1258,75 Z M1437,67 L1426,67 L1414,70 L1380,84 L1368,91 L1365,91 L1363,89 L1362,84 L1358,84 L1356,87 L1360,89 L1361,92 L1340,108 L1326,114 L1318,124 L1318,127 L1322,128 L1326,123 L1329,122 L1330,119 L1339,118 L1350,110 L1353,111 L1343,145 L1332,165 L1335,166 L1340,161 L1352,142 L1356,127 L1361,117 L1363,103 L1368,98 L1387,90 L1395,84 L1413,75 Z M1112,67 L1104,71 L1101,78 L1086,100 L1076,101 L1045,91 L1039,92 L1037,94 L1037,100 L1040,101 L1047,97 L1050,101 L1056,104 L1083,107 L1083,110 L1080,113 L1054,169 L1053,182 L1066,182 L1067,179 L1061,179 L1061,174 L1066,160 L1073,148 L1075,141 L1082,131 L1088,115 L1099,94 L1106,84 L1108,78 L1113,73 L1114,70 Z M964,67 L957,66 L941,74 L922,90 L919,100 L923,110 L932,122 L932,130 L926,140 L918,147 L910,148 L906,151 L906,155 L909,160 L913,161 L921,157 L932,147 L940,136 L942,128 L941,119 L928,102 L929,96 L942,85 L939,85 L937,83 L937,80 L941,77 L944,77 L946,83 L959,72 L965,70 Z M1907,61 L1901,65 L1901,75 L1903,78 L1903,94 L1908,94 L1910,88 L1910,72 Z M1929,51 L1926,52 L1917,63 L1914,70 L1915,79 L1920,78 L1921,73 L1928,62 Z M422,38 L412,40 L398,53 L388,74 L386,86 L372,101 L370,106 L371,108 L375,109 L389,93 L392,93 L394,96 L400,96 L425,88 L433,82 L408,87 L395,86 L395,82 L407,54 L417,43 L423,39 Z M594,38 L590,37 L580,42 L567,53 L552,69 L524,106 L515,121 L515,125 L507,132 L507,138 L511,138 L515,134 L516,128 L521,126 L528,112 L534,107 L545,91 L548,92 L548,97 L551,98 L558,97 L574,87 L579,87 L586,84 L590,84 L592,86 L590,98 L584,107 L572,121 L553,139 L546,140 L541,145 L540,149 L542,152 L553,149 L585,119 L598,99 L600,86 L598,81 L593,77 L583,78 L576,83 L574,83 L573,80 L583,69 L588,59 L595,51 L598,43 Z M583,55 L584,58 L580,63 L572,69 L558,84 L553,86 L552,83 L559,74 L578,55 Z M289,91 L293,94 L302,92 L302,104 L304,107 L307,107 L310,104 L309,97 L312,89 L318,86 L332,84 L333,89 L331,96 L332,99 L334,99 L337,96 L340,84 L344,79 L374,70 L359,72 L353,75 L343,75 L342,71 L347,51 L347,46 L344,44 L344,42 L347,40 L339,39 L335,59 L334,76 L323,80 L314,80 L313,76 L316,66 L317,41 L314,39 L314,36 L306,35 L305,37 L307,39 L308,64 L305,81 L302,84 L291,88 Z M234,32 L228,32 L219,63 L205,93 L205,101 L209,99 L215,89 L227,63 L234,40 Z M846,28 L840,28 L839,30 L810,44 L796,53 L771,64 L753,77 L751,87 L749,89 L745,88 L743,81 L738,80 L733,82 L724,91 L719,92 L708,100 L705,107 L700,111 L701,116 L697,121 L697,126 L701,133 L710,141 L710,144 L704,152 L695,159 L694,165 L697,168 L703,167 L712,160 L719,150 L721,144 L720,138 L706,123 L707,115 L715,106 L736,91 L740,92 L743,101 L750,89 L758,86 L775,72 L787,67 Z M703,110 L706,109 L707,112 L704,113 Z M733,84 L736,85 L734,89 L731,88 Z M222,28 L203,28 L200,32 L186,42 L185,47 L188,48 L191,44 L201,41 L211,33 Z M98,28 L94,35 L95,39 L102,44 L108,42 L110,40 L105,38 L104,35 L111,28 Z M55,29 L60,31 L66,28 Z" fill="#f5f0e6" fill-rule="evenodd"/></svg>
